<mxfile host="app.diagrams.net" modified="2020-10-24T07:01:28.501Z" agent="5.0 (Macintosh; Intel Mac OS X 10_13_6) AppleWebKit/605.1.15 (KHTML, like Gecko) Version/13.1.2 Safari/605.1.15" etag="GDDDTGIkHsoHX5jVYUms" version="13.8.1" type="github">
  <diagram id="R2lEEEUBdFMjLlhIrx00" name="Page-1">
    <mxGraphModel dx="1426" dy="941" grid="1" gridSize="10" guides="1" tooltips="1" connect="1" arrows="1" fold="1" page="1" pageScale="1" pageWidth="850" pageHeight="1100" math="0" shadow="0" extFonts="Permanent Marker^https://fonts.googleapis.com/css?family=Permanent+Marker">
      <root>
        <mxCell id="0" />
        <mxCell id="1" parent="0" />
        <mxCell id="EqW7mRNqW-pM5LDjS-Ml-1" value="&lt;span lang=&quot;EN&quot; style=&quot;font-size: 11pt ; line-height: 16.866666793823242px ; font-family: &amp;#34;arial&amp;#34; , sans-serif&quot;&gt;attorney&lt;/span&gt;&lt;span style=&quot;font-size: medium&quot;&gt;&lt;/span&gt;" style="rounded=0;whiteSpace=wrap;html=1;" parent="1" vertex="1">
          <mxGeometry x="80" y="590" width="120" height="60" as="geometry" />
        </mxCell>
        <mxCell id="EqW7mRNqW-pM5LDjS-Ml-2" value="&lt;span lang=&quot;EN&quot; style=&quot;font-size: 11pt ; line-height: 16.866666793823242px ; font-family: &amp;#34;arial&amp;#34; , sans-serif&quot;&gt;client&lt;/span&gt;&lt;span style=&quot;font-size: medium&quot;&gt;&lt;/span&gt;" style="rounded=0;whiteSpace=wrap;html=1;" parent="1" vertex="1">
          <mxGeometry x="365" y="590" width="120" height="60" as="geometry" />
        </mxCell>
        <mxCell id="EqW7mRNqW-pM5LDjS-Ml-3" value="&lt;span lang=&quot;EN&quot; style=&quot;font-size: 11pt ; line-height: 16.866666793823242px ; font-family: &amp;#34;arial&amp;#34; , sans-serif&quot;&gt;judge&lt;/span&gt;&lt;span style=&quot;font-size: medium&quot;&gt;&lt;/span&gt;" style="rounded=0;whiteSpace=wrap;html=1;" parent="1" vertex="1">
          <mxGeometry x="610" y="170" width="120" height="60" as="geometry" />
        </mxCell>
        <mxCell id="EqW7mRNqW-pM5LDjS-Ml-4" value="&lt;span lang=&quot;EN&quot; style=&quot;font-size: 11pt ; line-height: 16.866666793823242px ; font-family: &amp;#34;arial&amp;#34; , sans-serif&quot;&gt;court&lt;/span&gt;&lt;span style=&quot;font-size: medium&quot;&gt;&lt;/span&gt;" style="rounded=0;whiteSpace=wrap;html=1;" parent="1" vertex="1">
          <mxGeometry x="240" y="170" width="120" height="60" as="geometry" />
        </mxCell>
        <mxCell id="EqW7mRNqW-pM5LDjS-Ml-5" value="&lt;span lang=&quot;EN&quot; style=&quot;font-size: 11pt ; line-height: 16.866666793823242px ; font-family: &amp;#34;arial&amp;#34; , sans-serif&quot;&gt;case&lt;/span&gt;&lt;span style=&quot;font-size: medium&quot;&gt;&lt;/span&gt;" style="rounded=0;whiteSpace=wrap;html=1;" parent="1" vertex="1">
          <mxGeometry x="650" y="590" width="120" height="60" as="geometry" />
        </mxCell>
        <mxCell id="EqW7mRNqW-pM5LDjS-Ml-7" value="" style="endArrow=none;html=1;" parent="1" edge="1">
          <mxGeometry width="50" height="50" relative="1" as="geometry">
            <mxPoint x="140" y="590" as="sourcePoint" />
            <mxPoint x="140" y="530" as="targetPoint" />
          </mxGeometry>
        </mxCell>
        <mxCell id="EqW7mRNqW-pM5LDjS-Ml-8" value="" style="endArrow=none;html=1;" parent="1" edge="1">
          <mxGeometry width="50" height="50" relative="1" as="geometry">
            <mxPoint x="180" y="590" as="sourcePoint" />
            <mxPoint x="210" y="540" as="targetPoint" />
          </mxGeometry>
        </mxCell>
        <mxCell id="EqW7mRNqW-pM5LDjS-Ml-9" value="" style="endArrow=none;html=1;entryX=0.5;entryY=1;entryDx=0;entryDy=0;" parent="1" target="EqW7mRNqW-pM5LDjS-Ml-1" edge="1">
          <mxGeometry width="50" height="50" relative="1" as="geometry">
            <mxPoint x="139.5" y="710" as="sourcePoint" />
            <mxPoint x="139.5" y="670" as="targetPoint" />
          </mxGeometry>
        </mxCell>
        <mxCell id="EqW7mRNqW-pM5LDjS-Ml-10" value="" style="endArrow=none;html=1;" parent="1" edge="1">
          <mxGeometry width="50" height="50" relative="1" as="geometry">
            <mxPoint x="100" y="590" as="sourcePoint" />
            <mxPoint x="80" y="540" as="targetPoint" />
          </mxGeometry>
        </mxCell>
        <mxCell id="EqW7mRNqW-pM5LDjS-Ml-11" value="" style="endArrow=none;html=1;" parent="1" edge="1">
          <mxGeometry width="50" height="50" relative="1" as="geometry">
            <mxPoint x="50" y="700" as="sourcePoint" />
            <mxPoint x="100" y="650" as="targetPoint" />
          </mxGeometry>
        </mxCell>
        <mxCell id="EqW7mRNqW-pM5LDjS-Ml-12" value="&lt;span lang=&quot;EN&quot; style=&quot;font-size: 11pt ; line-height: 16.866666793823242px ; font-family: &amp;#34;arial&amp;#34; , sans-serif&quot;&gt;phone&lt;/span&gt;&lt;span style=&quot;font-size: medium&quot;&gt;&lt;/span&gt;" style="ellipse;whiteSpace=wrap;html=1;" parent="1" vertex="1">
          <mxGeometry x="190" y="500" width="80" height="50" as="geometry" />
        </mxCell>
        <mxCell id="EqW7mRNqW-pM5LDjS-Ml-13" value="&lt;span lang=&quot;EN&quot; style=&quot;font-size: 11pt ; line-height: 16.866666793823242px ; font-family: &amp;#34;arial&amp;#34; , sans-serif&quot;&gt;name&lt;/span&gt;&lt;span style=&quot;font-size: medium&quot;&gt;&lt;/span&gt;" style="ellipse;whiteSpace=wrap;html=1;" parent="1" vertex="1">
          <mxGeometry x="110" y="480" width="80" height="50" as="geometry" />
        </mxCell>
        <mxCell id="EqW7mRNqW-pM5LDjS-Ml-14" value="&lt;span lang=&quot;EN&quot; style=&quot;font-size: 11pt ; line-height: 16.866666793823242px ; font-family: &amp;#34;arial&amp;#34; , sans-serif&quot;&gt;street address&lt;/span&gt;&lt;span style=&quot;font-size: medium&quot;&gt;&lt;/span&gt;" style="ellipse;whiteSpace=wrap;html=1;" parent="1" vertex="1">
          <mxGeometry x="10" y="700" width="80" height="50" as="geometry" />
        </mxCell>
        <mxCell id="EqW7mRNqW-pM5LDjS-Ml-15" value="&lt;span lang=&quot;EN&quot; style=&quot;font-size: 11pt ; line-height: 16.866666793823242px ; font-family: &amp;#34;arial&amp;#34; , sans-serif&quot;&gt;&lt;u&gt;AttorneyID&lt;/u&gt;&lt;/span&gt;&lt;span style=&quot;font-size: medium&quot;&gt;&lt;/span&gt;" style="ellipse;whiteSpace=wrap;html=1;" parent="1" vertex="1">
          <mxGeometry x="30" y="500" width="80" height="50" as="geometry" />
        </mxCell>
        <mxCell id="EqW7mRNqW-pM5LDjS-Ml-16" value="&lt;span lang=&quot;EN&quot; style=&quot;font-size: 11pt ; line-height: 16.866666793823242px ; font-family: &amp;#34;arial&amp;#34; , sans-serif&quot;&gt;city&lt;/span&gt;&lt;span style=&quot;font-size: medium&quot;&gt;&lt;/span&gt;" style="ellipse;whiteSpace=wrap;html=1;" parent="1" vertex="1">
          <mxGeometry x="100" y="700" width="80" height="50" as="geometry" />
        </mxCell>
        <mxCell id="EqW7mRNqW-pM5LDjS-Ml-17" value="&lt;span lang=&quot;EN&quot; style=&quot;font-size: 11pt ; line-height: 16.866666793823242px ; font-family: &amp;#34;arial&amp;#34; , sans-serif&quot;&gt;specialty&lt;/span&gt;&lt;span style=&quot;font-size: medium&quot;&gt;&lt;/span&gt;" style="ellipse;whiteSpace=wrap;html=1;" parent="1" vertex="1">
          <mxGeometry x="50" y="440" width="80" height="50" as="geometry" />
        </mxCell>
        <mxCell id="EqW7mRNqW-pM5LDjS-Ml-18" value="&lt;span lang=&quot;EN&quot; style=&quot;font-size: 11pt ; line-height: 16.866666793823242px ; font-family: &amp;#34;arial&amp;#34; , sans-serif&quot;&gt;zip code&lt;/span&gt;&lt;span style=&quot;font-size: medium&quot;&gt;&lt;/span&gt;" style="ellipse;whiteSpace=wrap;html=1;" parent="1" vertex="1">
          <mxGeometry x="160" y="740" width="80" height="50" as="geometry" />
        </mxCell>
        <mxCell id="EqW7mRNqW-pM5LDjS-Ml-19" value="&lt;span lang=&quot;EN&quot; style=&quot;font-size: 11pt ; line-height: 16.866666793823242px ; font-family: &amp;#34;arial&amp;#34; , sans-serif&quot;&gt;state&lt;/span&gt;&lt;span style=&quot;font-size: medium&quot;&gt;&lt;/span&gt;" style="ellipse;whiteSpace=wrap;html=1;" parent="1" vertex="1">
          <mxGeometry x="30" y="770" width="80" height="50" as="geometry" />
        </mxCell>
        <mxCell id="EqW7mRNqW-pM5LDjS-Ml-20" value="" style="endArrow=none;html=1;" parent="1" edge="1">
          <mxGeometry width="50" height="50" relative="1" as="geometry">
            <mxPoint x="80" y="770" as="sourcePoint" />
            <mxPoint x="120" y="650" as="targetPoint" />
          </mxGeometry>
        </mxCell>
        <mxCell id="EqW7mRNqW-pM5LDjS-Ml-21" value="" style="endArrow=none;html=1;" parent="1" edge="1">
          <mxGeometry width="50" height="50" relative="1" as="geometry">
            <mxPoint x="190" y="740" as="sourcePoint" />
            <mxPoint x="175" y="650" as="targetPoint" />
          </mxGeometry>
        </mxCell>
        <mxCell id="EqW7mRNqW-pM5LDjS-Ml-22" value="" style="endArrow=none;html=1;" parent="1" edge="1">
          <mxGeometry width="50" height="50" relative="1" as="geometry">
            <mxPoint x="120" y="590" as="sourcePoint" />
            <mxPoint x="100" y="490" as="targetPoint" />
          </mxGeometry>
        </mxCell>
        <mxCell id="EqW7mRNqW-pM5LDjS-Ml-23" value="have" style="rhombus;whiteSpace=wrap;html=1;" parent="1" vertex="1">
          <mxGeometry x="240" y="595" width="80" height="50" as="geometry" />
        </mxCell>
        <mxCell id="EqW7mRNqW-pM5LDjS-Ml-24" value="" style="endArrow=none;html=1;exitX=1;exitY=0.5;exitDx=0;exitDy=0;" parent="1" source="EqW7mRNqW-pM5LDjS-Ml-1" edge="1">
          <mxGeometry width="50" height="50" relative="1" as="geometry">
            <mxPoint x="190" y="670" as="sourcePoint" />
            <mxPoint x="240" y="620" as="targetPoint" />
          </mxGeometry>
        </mxCell>
        <mxCell id="EqW7mRNqW-pM5LDjS-Ml-26" value="" style="endArrow=classic;html=1;entryX=0;entryY=0.5;entryDx=0;entryDy=0;" parent="1" target="EqW7mRNqW-pM5LDjS-Ml-2" edge="1">
          <mxGeometry width="50" height="50" relative="1" as="geometry">
            <mxPoint x="320" y="620" as="sourcePoint" />
            <mxPoint x="370" y="570" as="targetPoint" />
          </mxGeometry>
        </mxCell>
        <mxCell id="EqW7mRNqW-pM5LDjS-Ml-31" value="" style="endArrow=none;html=1;" parent="1" edge="1">
          <mxGeometry width="50" height="50" relative="1" as="geometry">
            <mxPoint x="420" y="590" as="sourcePoint" />
            <mxPoint x="420" y="530" as="targetPoint" />
          </mxGeometry>
        </mxCell>
        <mxCell id="EqW7mRNqW-pM5LDjS-Ml-32" value="" style="endArrow=none;html=1;" parent="1" edge="1">
          <mxGeometry width="50" height="50" relative="1" as="geometry">
            <mxPoint x="460" y="590" as="sourcePoint" />
            <mxPoint x="490" y="540" as="targetPoint" />
          </mxGeometry>
        </mxCell>
        <mxCell id="EqW7mRNqW-pM5LDjS-Ml-33" value="" style="endArrow=none;html=1;" parent="1" edge="1">
          <mxGeometry width="50" height="50" relative="1" as="geometry">
            <mxPoint x="380" y="590" as="sourcePoint" />
            <mxPoint x="360" y="540" as="targetPoint" />
          </mxGeometry>
        </mxCell>
        <mxCell id="EqW7mRNqW-pM5LDjS-Ml-34" value="&lt;span lang=&quot;EN&quot; style=&quot;font-size: 11pt ; line-height: 16.866666793823242px ; font-family: &amp;#34;arial&amp;#34; , sans-serif&quot;&gt;phone&lt;/span&gt;&lt;span style=&quot;font-size: medium&quot;&gt;&lt;/span&gt;" style="ellipse;whiteSpace=wrap;html=1;" parent="1" vertex="1">
          <mxGeometry x="470" y="500" width="80" height="50" as="geometry" />
        </mxCell>
        <mxCell id="EqW7mRNqW-pM5LDjS-Ml-35" value="&lt;span lang=&quot;EN&quot; style=&quot;font-size: 11pt ; line-height: 16.866666793823242px ; font-family: &amp;#34;arial&amp;#34; , sans-serif&quot;&gt;name&lt;/span&gt;&lt;span style=&quot;font-size: medium&quot;&gt;&lt;/span&gt;" style="ellipse;whiteSpace=wrap;html=1;" parent="1" vertex="1">
          <mxGeometry x="390" y="480" width="80" height="50" as="geometry" />
        </mxCell>
        <mxCell id="EqW7mRNqW-pM5LDjS-Ml-36" value="&lt;span lang=&quot;EN&quot; style=&quot;font-size: 11pt ; line-height: 16.866666793823242px ; font-family: &amp;#34;arial&amp;#34; , sans-serif&quot;&gt;&lt;u&gt;clientID&lt;/u&gt;&lt;/span&gt;&lt;span style=&quot;font-size: medium&quot;&gt;&lt;/span&gt;" style="ellipse;whiteSpace=wrap;html=1;" parent="1" vertex="1">
          <mxGeometry x="310" y="500" width="80" height="50" as="geometry" />
        </mxCell>
        <mxCell id="EqW7mRNqW-pM5LDjS-Ml-37" value="&lt;span lang=&quot;EN&quot; style=&quot;font-size: 11pt ; line-height: 16.866666793823242px ; font-family: &amp;#34;arial&amp;#34; , sans-serif&quot;&gt;date of birth&lt;/span&gt;&lt;span style=&quot;font-size: medium&quot;&gt;&lt;/span&gt;" style="ellipse;whiteSpace=wrap;html=1;" parent="1" vertex="1">
          <mxGeometry x="330" y="440" width="80" height="50" as="geometry" />
        </mxCell>
        <mxCell id="EqW7mRNqW-pM5LDjS-Ml-38" value="" style="endArrow=none;html=1;" parent="1" edge="1">
          <mxGeometry width="50" height="50" relative="1" as="geometry">
            <mxPoint x="400" y="590" as="sourcePoint" />
            <mxPoint x="380" y="490" as="targetPoint" />
          </mxGeometry>
        </mxCell>
        <mxCell id="EqW7mRNqW-pM5LDjS-Ml-39" value="" style="endArrow=none;html=1;entryX=0.5;entryY=1;entryDx=0;entryDy=0;" parent="1" edge="1">
          <mxGeometry width="50" height="50" relative="1" as="geometry">
            <mxPoint x="429.5" y="710" as="sourcePoint" />
            <mxPoint x="430" y="650" as="targetPoint" />
          </mxGeometry>
        </mxCell>
        <mxCell id="EqW7mRNqW-pM5LDjS-Ml-40" value="" style="endArrow=none;html=1;" parent="1" edge="1">
          <mxGeometry width="50" height="50" relative="1" as="geometry">
            <mxPoint x="340" y="700" as="sourcePoint" />
            <mxPoint x="390" y="650" as="targetPoint" />
          </mxGeometry>
        </mxCell>
        <mxCell id="EqW7mRNqW-pM5LDjS-Ml-41" value="&lt;span lang=&quot;EN&quot; style=&quot;font-size: 11pt ; line-height: 16.866666793823242px ; font-family: &amp;#34;arial&amp;#34; , sans-serif&quot;&gt;street address&lt;/span&gt;&lt;span style=&quot;font-size: medium&quot;&gt;&lt;/span&gt;" style="ellipse;whiteSpace=wrap;html=1;" parent="1" vertex="1">
          <mxGeometry x="300" y="700" width="80" height="50" as="geometry" />
        </mxCell>
        <mxCell id="EqW7mRNqW-pM5LDjS-Ml-42" value="&lt;span lang=&quot;EN&quot; style=&quot;font-size: 11pt ; line-height: 16.866666793823242px ; font-family: &amp;#34;arial&amp;#34; , sans-serif&quot;&gt;city&lt;/span&gt;&lt;span style=&quot;font-size: medium&quot;&gt;&lt;/span&gt;" style="ellipse;whiteSpace=wrap;html=1;" parent="1" vertex="1">
          <mxGeometry x="390" y="700" width="80" height="50" as="geometry" />
        </mxCell>
        <mxCell id="EqW7mRNqW-pM5LDjS-Ml-43" value="&lt;span lang=&quot;EN&quot; style=&quot;font-size: 11pt ; line-height: 16.866666793823242px ; font-family: &amp;#34;arial&amp;#34; , sans-serif&quot;&gt;zip code&lt;/span&gt;&lt;span style=&quot;font-size: medium&quot;&gt;&lt;/span&gt;" style="ellipse;whiteSpace=wrap;html=1;" parent="1" vertex="1">
          <mxGeometry x="490" y="690" width="80" height="50" as="geometry" />
        </mxCell>
        <mxCell id="EqW7mRNqW-pM5LDjS-Ml-44" value="&lt;span lang=&quot;EN&quot; style=&quot;font-size: 11pt ; line-height: 16.866666793823242px ; font-family: &amp;#34;arial&amp;#34; , sans-serif&quot;&gt;state&lt;/span&gt;&lt;span style=&quot;font-size: medium&quot;&gt;&lt;/span&gt;" style="ellipse;whiteSpace=wrap;html=1;" parent="1" vertex="1">
          <mxGeometry x="320" y="770" width="80" height="50" as="geometry" />
        </mxCell>
        <mxCell id="EqW7mRNqW-pM5LDjS-Ml-45" value="" style="endArrow=none;html=1;" parent="1" edge="1">
          <mxGeometry width="50" height="50" relative="1" as="geometry">
            <mxPoint x="370" y="770" as="sourcePoint" />
            <mxPoint x="410" y="650" as="targetPoint" />
          </mxGeometry>
        </mxCell>
        <mxCell id="EqW7mRNqW-pM5LDjS-Ml-46" value="" style="endArrow=none;html=1;exitX=0;exitY=0.5;exitDx=0;exitDy=0;" parent="1" edge="1" source="EqW7mRNqW-pM5LDjS-Ml-43">
          <mxGeometry width="50" height="50" relative="1" as="geometry">
            <mxPoint x="480" y="740" as="sourcePoint" />
            <mxPoint x="465" y="650" as="targetPoint" />
          </mxGeometry>
        </mxCell>
        <mxCell id="EqW7mRNqW-pM5LDjS-Ml-47" value="" style="endArrow=none;html=1;exitX=1;exitY=0.5;exitDx=0;exitDy=0;" parent="1" edge="1">
          <mxGeometry width="50" height="50" relative="1" as="geometry">
            <mxPoint x="485" y="620" as="sourcePoint" />
            <mxPoint x="525" y="620" as="targetPoint" />
          </mxGeometry>
        </mxCell>
        <mxCell id="EqW7mRNqW-pM5LDjS-Ml-48" value="" style="endArrow=none;html=1;" parent="1" edge="1">
          <mxGeometry width="50" height="50" relative="1" as="geometry">
            <mxPoint x="440" y="590" as="sourcePoint" />
            <mxPoint x="480" y="480" as="targetPoint" />
          </mxGeometry>
        </mxCell>
        <mxCell id="EqW7mRNqW-pM5LDjS-Ml-49" value="&lt;span lang=&quot;EN&quot; style=&quot;font-size: 11pt ; line-height: 16.866666793823242px ; font-family: &amp;#34;arial&amp;#34; , sans-serif&quot;&gt;income&lt;/span&gt;&lt;span style=&quot;font-size: medium&quot;&gt;&lt;/span&gt;" style="ellipse;whiteSpace=wrap;html=1;" parent="1" vertex="1">
          <mxGeometry x="450" y="440" width="80" height="50" as="geometry" />
        </mxCell>
        <mxCell id="EqW7mRNqW-pM5LDjS-Ml-50" value="have" style="rhombus;whiteSpace=wrap;html=1;" parent="1" vertex="1">
          <mxGeometry x="520" y="595" width="80" height="50" as="geometry" />
        </mxCell>
        <mxCell id="EqW7mRNqW-pM5LDjS-Ml-51" value="" style="endArrow=classic;html=1;entryX=0;entryY=0.5;entryDx=0;entryDy=0;" parent="1" edge="1">
          <mxGeometry width="50" height="50" relative="1" as="geometry">
            <mxPoint x="600" y="619.5" as="sourcePoint" />
            <mxPoint x="645" y="619.5" as="targetPoint" />
          </mxGeometry>
        </mxCell>
        <mxCell id="EqW7mRNqW-pM5LDjS-Ml-55" value="" style="endArrow=none;html=1;" parent="1" edge="1">
          <mxGeometry width="50" height="50" relative="1" as="geometry">
            <mxPoint x="710" y="590" as="sourcePoint" />
            <mxPoint x="710" y="530" as="targetPoint" />
          </mxGeometry>
        </mxCell>
        <mxCell id="EqW7mRNqW-pM5LDjS-Ml-56" value="" style="endArrow=none;html=1;" parent="1" edge="1">
          <mxGeometry width="50" height="50" relative="1" as="geometry">
            <mxPoint x="750" y="590" as="sourcePoint" />
            <mxPoint x="780" y="540" as="targetPoint" />
          </mxGeometry>
        </mxCell>
        <mxCell id="EqW7mRNqW-pM5LDjS-Ml-57" value="" style="endArrow=none;html=1;" parent="1" edge="1">
          <mxGeometry width="50" height="50" relative="1" as="geometry">
            <mxPoint x="670" y="590" as="sourcePoint" />
            <mxPoint x="650" y="540" as="targetPoint" />
          </mxGeometry>
        </mxCell>
        <mxCell id="EqW7mRNqW-pM5LDjS-Ml-58" value="&lt;span lang=&quot;EN&quot; style=&quot;font-size: 11pt ; line-height: 16.866666793823242px ; font-family: &amp;#34;arial&amp;#34; , sans-serif&quot;&gt;ending date&lt;/span&gt;&lt;span style=&quot;font-size: medium&quot;&gt;&lt;/span&gt;" style="ellipse;whiteSpace=wrap;html=1;" parent="1" vertex="1">
          <mxGeometry x="760" y="500" width="80" height="50" as="geometry" />
        </mxCell>
        <mxCell id="EqW7mRNqW-pM5LDjS-Ml-59" value="&lt;span lang=&quot;EN&quot; style=&quot;font-size: 11pt ; line-height: 16.866666793823242px ; font-family: &amp;#34;arial&amp;#34; , sans-serif&quot;&gt;starting date&lt;/span&gt;&lt;span style=&quot;font-size: medium&quot;&gt;&lt;/span&gt;" style="ellipse;whiteSpace=wrap;html=1;" parent="1" vertex="1">
          <mxGeometry x="680" y="480" width="80" height="50" as="geometry" />
        </mxCell>
        <mxCell id="EqW7mRNqW-pM5LDjS-Ml-60" value="&lt;span lang=&quot;EN&quot; style=&quot;font-size: 11pt ; line-height: 16.866666793823242px ; font-family: &amp;#34;arial&amp;#34; , sans-serif&quot;&gt;caseID&lt;/span&gt;&lt;span style=&quot;font-size: medium&quot;&gt;&lt;/span&gt;" style="ellipse;whiteSpace=wrap;html=1;" parent="1" vertex="1">
          <mxGeometry x="600" y="500" width="80" height="50" as="geometry" />
        </mxCell>
        <mxCell id="EqW7mRNqW-pM5LDjS-Ml-64" value="" style="endArrow=none;html=1;entryX=0.5;entryY=1;entryDx=0;entryDy=0;" parent="1" edge="1">
          <mxGeometry width="50" height="50" relative="1" as="geometry">
            <mxPoint x="729.5" y="710" as="sourcePoint" />
            <mxPoint x="730" y="650" as="targetPoint" />
          </mxGeometry>
        </mxCell>
        <mxCell id="EqW7mRNqW-pM5LDjS-Ml-65" value="" style="endArrow=none;html=1;" parent="1" edge="1">
          <mxGeometry width="50" height="50" relative="1" as="geometry">
            <mxPoint x="640" y="700" as="sourcePoint" />
            <mxPoint x="690" y="650" as="targetPoint" />
          </mxGeometry>
        </mxCell>
        <mxCell id="EqW7mRNqW-pM5LDjS-Ml-66" value="&lt;span lang=&quot;EN&quot; style=&quot;font-size: 11pt ; line-height: 16.866666793823242px ; font-family: &amp;#34;arial&amp;#34; , sans-serif&quot;&gt;type&lt;/span&gt;&lt;span style=&quot;font-size: medium&quot;&gt;&lt;/span&gt;" style="ellipse;whiteSpace=wrap;html=1;" parent="1" vertex="1">
          <mxGeometry x="600" y="700" width="80" height="50" as="geometry" />
        </mxCell>
        <mxCell id="EqW7mRNqW-pM5LDjS-Ml-67" value="&lt;span lang=&quot;EN&quot; style=&quot;font-size: 11pt ; line-height: 16.866666793823242px ; font-family: &amp;#34;arial&amp;#34; , sans-serif&quot;&gt;description&lt;/span&gt;&lt;span style=&quot;font-size: medium&quot;&gt;&lt;/span&gt;" style="ellipse;whiteSpace=wrap;html=1;" parent="1" vertex="1">
          <mxGeometry x="690" y="700" width="80" height="50" as="geometry" />
        </mxCell>
        <mxCell id="EqW7mRNqW-pM5LDjS-Ml-69" value="" style="endArrow=none;html=1;exitX=1;exitY=0.25;exitDx=0;exitDy=0;entryX=0;entryY=0.5;entryDx=0;entryDy=0;" parent="1" source="EqW7mRNqW-pM5LDjS-Ml-1" edge="1" target="EqW7mRNqW-pM5LDjS-Ml-70">
          <mxGeometry width="50" height="50" relative="1" as="geometry">
            <mxPoint x="200" y="690" as="sourcePoint" />
            <mxPoint x="310" y="480" as="targetPoint" />
          </mxGeometry>
        </mxCell>
        <mxCell id="EqW7mRNqW-pM5LDjS-Ml-70" value="retain" style="rhombus;whiteSpace=wrap;html=1;" parent="1" vertex="1">
          <mxGeometry x="370" y="380" width="80" height="50" as="geometry" />
        </mxCell>
        <mxCell id="EqW7mRNqW-pM5LDjS-Ml-71" value="" style="endArrow=classic;html=1;entryX=0;entryY=0.25;entryDx=0;entryDy=0;exitX=1;exitY=0.5;exitDx=0;exitDy=0;" parent="1" target="EqW7mRNqW-pM5LDjS-Ml-5" edge="1" source="EqW7mRNqW-pM5LDjS-Ml-70">
          <mxGeometry width="50" height="50" relative="1" as="geometry">
            <mxPoint x="460" y="934.5" as="sourcePoint" />
            <mxPoint x="505" y="934.5" as="targetPoint" />
          </mxGeometry>
        </mxCell>
        <mxCell id="EqW7mRNqW-pM5LDjS-Ml-72" value="" style="endArrow=none;html=1;" parent="1" edge="1">
          <mxGeometry width="50" height="50" relative="1" as="geometry">
            <mxPoint x="295" y="170" as="sourcePoint" />
            <mxPoint x="295" y="110" as="targetPoint" />
          </mxGeometry>
        </mxCell>
        <mxCell id="EqW7mRNqW-pM5LDjS-Ml-73" value="" style="endArrow=none;html=1;" parent="1" edge="1">
          <mxGeometry width="50" height="50" relative="1" as="geometry">
            <mxPoint x="335" y="170" as="sourcePoint" />
            <mxPoint x="365" y="120" as="targetPoint" />
          </mxGeometry>
        </mxCell>
        <mxCell id="EqW7mRNqW-pM5LDjS-Ml-74" value="" style="endArrow=none;html=1;" parent="1" edge="1">
          <mxGeometry width="50" height="50" relative="1" as="geometry">
            <mxPoint x="255" y="170" as="sourcePoint" />
            <mxPoint x="235" y="120" as="targetPoint" />
          </mxGeometry>
        </mxCell>
        <mxCell id="EqW7mRNqW-pM5LDjS-Ml-75" value="&lt;span lang=&quot;EN&quot; style=&quot;font-size: 11pt ; line-height: 16.866666793823242px ; font-family: &amp;#34;arial&amp;#34; , sans-serif&quot;&gt;street address&lt;/span&gt;&lt;span style=&quot;font-size: medium&quot;&gt;&lt;/span&gt;" style="ellipse;whiteSpace=wrap;html=1;" parent="1" vertex="1">
          <mxGeometry x="345" y="80" width="80" height="50" as="geometry" />
        </mxCell>
        <mxCell id="EqW7mRNqW-pM5LDjS-Ml-76" value="&lt;span lang=&quot;EN&quot; style=&quot;font-size: 11pt ; line-height: 16.866666793823242px ; font-family: &amp;#34;arial&amp;#34; , sans-serif&quot;&gt;court name&lt;/span&gt;&lt;span style=&quot;font-size: medium&quot;&gt;&lt;/span&gt;" style="ellipse;whiteSpace=wrap;html=1;" parent="1" vertex="1">
          <mxGeometry x="265" y="60" width="80" height="50" as="geometry" />
        </mxCell>
        <mxCell id="EqW7mRNqW-pM5LDjS-Ml-77" value="&lt;span lang=&quot;EN&quot; style=&quot;font-size: 11pt ; line-height: 16.866666793823242px ; font-family: &amp;#34;arial&amp;#34; , sans-serif&quot;&gt;courtID&lt;/span&gt;&lt;span style=&quot;font-size: medium&quot;&gt;&lt;/span&gt;" style="ellipse;whiteSpace=wrap;html=1;" parent="1" vertex="1">
          <mxGeometry x="185" y="80" width="80" height="50" as="geometry" />
        </mxCell>
        <mxCell id="EqW7mRNqW-pM5LDjS-Ml-82" value="" style="endArrow=none;html=1;entryX=0.5;entryY=1;entryDx=0;entryDy=0;" parent="1" edge="1">
          <mxGeometry width="50" height="50" relative="1" as="geometry">
            <mxPoint x="304.5" y="290" as="sourcePoint" />
            <mxPoint x="305" y="230" as="targetPoint" />
          </mxGeometry>
        </mxCell>
        <mxCell id="EqW7mRNqW-pM5LDjS-Ml-83" value="" style="endArrow=none;html=1;" parent="1" edge="1">
          <mxGeometry width="50" height="50" relative="1" as="geometry">
            <mxPoint x="215" y="280" as="sourcePoint" />
            <mxPoint x="265" y="230" as="targetPoint" />
          </mxGeometry>
        </mxCell>
        <mxCell id="EqW7mRNqW-pM5LDjS-Ml-84" value="&lt;span lang=&quot;EN&quot; style=&quot;font-size: 11pt ; line-height: 16.866666793823242px ; font-family: &amp;#34;arial&amp;#34; , sans-serif&quot;&gt;state&lt;/span&gt;&lt;span style=&quot;font-size: medium&quot;&gt;&lt;/span&gt;" style="ellipse;whiteSpace=wrap;html=1;" parent="1" vertex="1">
          <mxGeometry x="175" y="280" width="80" height="50" as="geometry" />
        </mxCell>
        <mxCell id="EqW7mRNqW-pM5LDjS-Ml-85" value="&lt;span lang=&quot;EN&quot; style=&quot;font-size: 11pt ; line-height: 16.866666793823242px ; font-family: &amp;#34;arial&amp;#34; , sans-serif&quot;&gt;city&lt;/span&gt;&lt;span style=&quot;font-size: medium&quot;&gt;&lt;/span&gt;" style="ellipse;whiteSpace=wrap;html=1;" parent="1" vertex="1">
          <mxGeometry x="265" y="280" width="80" height="50" as="geometry" />
        </mxCell>
        <mxCell id="EqW7mRNqW-pM5LDjS-Ml-86" value="&lt;span lang=&quot;EN&quot; style=&quot;font-size: 11pt ; line-height: 16.866666793823242px ; font-family: &amp;#34;arial&amp;#34; , sans-serif&quot;&gt;zip code&lt;/span&gt;&lt;span style=&quot;font-size: medium&quot;&gt;&lt;/span&gt;" style="ellipse;whiteSpace=wrap;html=1;" parent="1" vertex="1">
          <mxGeometry x="325" y="320" width="80" height="50" as="geometry" />
        </mxCell>
        <mxCell id="EqW7mRNqW-pM5LDjS-Ml-89" value="" style="endArrow=none;html=1;" parent="1" edge="1">
          <mxGeometry width="50" height="50" relative="1" as="geometry">
            <mxPoint x="355" y="320" as="sourcePoint" />
            <mxPoint x="340" y="230" as="targetPoint" />
          </mxGeometry>
        </mxCell>
        <mxCell id="EqW7mRNqW-pM5LDjS-Ml-91" value="have" style="rhombus;whiteSpace=wrap;html=1;" parent="1" vertex="1">
          <mxGeometry x="425" y="320" width="80" height="50" as="geometry" />
        </mxCell>
        <mxCell id="EqW7mRNqW-pM5LDjS-Ml-92" value="" style="endArrow=classic;html=1;entryX=0;entryY=0.25;entryDx=0;entryDy=0;" parent="1" source="EqW7mRNqW-pM5LDjS-Ml-91" target="EqW7mRNqW-pM5LDjS-Ml-5" edge="1">
          <mxGeometry width="50" height="50" relative="1" as="geometry">
            <mxPoint x="520" y="330" as="sourcePoint" />
            <mxPoint x="600" y="600" as="targetPoint" />
          </mxGeometry>
        </mxCell>
        <mxCell id="EqW7mRNqW-pM5LDjS-Ml-93" value="" style="endArrow=none;html=1;exitX=1;exitY=1;exitDx=0;exitDy=0;" parent="1" source="EqW7mRNqW-pM5LDjS-Ml-4" target="EqW7mRNqW-pM5LDjS-Ml-91" edge="1">
          <mxGeometry width="50" height="50" relative="1" as="geometry">
            <mxPoint x="355" y="220" as="sourcePoint" />
            <mxPoint x="395" y="170" as="targetPoint" />
          </mxGeometry>
        </mxCell>
        <mxCell id="EqW7mRNqW-pM5LDjS-Ml-94" value="" style="endArrow=none;html=1;" parent="1" edge="1">
          <mxGeometry width="50" height="50" relative="1" as="geometry">
            <mxPoint x="670" y="170" as="sourcePoint" />
            <mxPoint x="670" y="110" as="targetPoint" />
          </mxGeometry>
        </mxCell>
        <mxCell id="EqW7mRNqW-pM5LDjS-Ml-95" value="" style="endArrow=none;html=1;" parent="1" edge="1">
          <mxGeometry width="50" height="50" relative="1" as="geometry">
            <mxPoint x="710" y="170" as="sourcePoint" />
            <mxPoint x="740" y="120" as="targetPoint" />
          </mxGeometry>
        </mxCell>
        <mxCell id="EqW7mRNqW-pM5LDjS-Ml-96" value="" style="endArrow=none;html=1;" parent="1" edge="1">
          <mxGeometry width="50" height="50" relative="1" as="geometry">
            <mxPoint x="630" y="170" as="sourcePoint" />
            <mxPoint x="610" y="120" as="targetPoint" />
          </mxGeometry>
        </mxCell>
        <mxCell id="EqW7mRNqW-pM5LDjS-Ml-97" value="&lt;span lang=&quot;EN&quot; style=&quot;font-size: 11pt ; line-height: 16.866666793823242px ; font-family: &amp;#34;arial&amp;#34; , sans-serif&quot;&gt;years of service&lt;/span&gt;&lt;span style=&quot;font-size: medium&quot;&gt;&lt;/span&gt;" style="ellipse;whiteSpace=wrap;html=1;" parent="1" vertex="1">
          <mxGeometry x="720" y="80" width="80" height="50" as="geometry" />
        </mxCell>
        <mxCell id="EqW7mRNqW-pM5LDjS-Ml-98" value="&lt;span lang=&quot;EN&quot; style=&quot;font-size: 11pt ; line-height: 16.866666793823242px ; font-family: &amp;#34;arial&amp;#34; , sans-serif&quot;&gt;name&lt;/span&gt;&lt;span style=&quot;font-size: medium&quot;&gt;&lt;/span&gt;" style="ellipse;whiteSpace=wrap;html=1;" parent="1" vertex="1">
          <mxGeometry x="640" y="60" width="80" height="50" as="geometry" />
        </mxCell>
        <mxCell id="EqW7mRNqW-pM5LDjS-Ml-99" value="&lt;span lang=&quot;EN&quot; style=&quot;font-size: 11pt ; line-height: 16.866666793823242px ; font-family: &amp;#34;arial&amp;#34; , sans-serif&quot;&gt;JudgeID&lt;/span&gt;&lt;span style=&quot;font-size: medium&quot;&gt;&lt;/span&gt;" style="ellipse;whiteSpace=wrap;html=1;" parent="1" vertex="1">
          <mxGeometry x="560" y="80" width="80" height="50" as="geometry" />
        </mxCell>
        <mxCell id="EqW7mRNqW-pM5LDjS-Ml-100" value="preside" style="rhombus;whiteSpace=wrap;html=1;" parent="1" vertex="1">
          <mxGeometry x="450" y="175" width="80" height="50" as="geometry" />
        </mxCell>
        <mxCell id="EqW7mRNqW-pM5LDjS-Ml-101" value="" style="endArrow=none;html=1;" parent="1" edge="1">
          <mxGeometry width="50" height="50" relative="1" as="geometry">
            <mxPoint x="530" y="200" as="sourcePoint" />
            <mxPoint x="610" y="200" as="targetPoint" />
          </mxGeometry>
        </mxCell>
        <mxCell id="EqW7mRNqW-pM5LDjS-Ml-102" value="" style="endArrow=classic;html=1;" parent="1" edge="1">
          <mxGeometry width="50" height="50" relative="1" as="geometry">
            <mxPoint x="450" y="200" as="sourcePoint" />
            <mxPoint x="360" y="200" as="targetPoint" />
          </mxGeometry>
        </mxCell>
        <mxCell id="I6QSgsFptR3XSi5WMfPF-1" value="Relationship" style="shape=rhombus;double=1;perimeter=rhombusPerimeter;whiteSpace=wrap;html=1;align=center;" vertex="1" parent="1">
          <mxGeometry x="440" y="770" width="100" height="60" as="geometry" />
        </mxCell>
        <mxCell id="I6QSgsFptR3XSi5WMfPF-2" value="" style="endArrow=none;html=1;entryX=0.75;entryY=1;entryDx=0;entryDy=0;" edge="1" parent="1" target="EqW7mRNqW-pM5LDjS-Ml-2">
          <mxGeometry width="50" height="50" relative="1" as="geometry">
            <mxPoint x="490" y="770" as="sourcePoint" />
            <mxPoint x="560" y="790" as="targetPoint" />
          </mxGeometry>
        </mxCell>
        <mxCell id="I6QSgsFptR3XSi5WMfPF-3" value="" style="endArrow=none;html=1;exitX=0.5;exitY=0;exitDx=0;exitDy=0;" edge="1" parent="1" source="I6QSgsFptR3XSi5WMfPF-13">
          <mxGeometry width="50" height="50" relative="1" as="geometry">
            <mxPoint x="440" y="880" as="sourcePoint" />
            <mxPoint x="490" y="830" as="targetPoint" />
          </mxGeometry>
        </mxCell>
        <mxCell id="I6QSgsFptR3XSi5WMfPF-6" value="" style="endArrow=none;html=1;" edge="1" parent="1">
          <mxGeometry width="50" height="50" relative="1" as="geometry">
            <mxPoint x="390" y="980" as="sourcePoint" />
            <mxPoint x="450" y="940" as="targetPoint" />
          </mxGeometry>
        </mxCell>
        <mxCell id="I6QSgsFptR3XSi5WMfPF-7" value="" style="endArrow=none;html=1;" edge="1" parent="1">
          <mxGeometry width="50" height="50" relative="1" as="geometry">
            <mxPoint x="450" y="990" as="sourcePoint" />
            <mxPoint x="450" y="940" as="targetPoint" />
          </mxGeometry>
        </mxCell>
        <mxCell id="I6QSgsFptR3XSi5WMfPF-8" value="" style="endArrow=none;html=1;" edge="1" parent="1">
          <mxGeometry width="50" height="50" relative="1" as="geometry">
            <mxPoint x="510" y="980" as="sourcePoint" />
            <mxPoint x="450" y="940" as="targetPoint" />
          </mxGeometry>
        </mxCell>
        <mxCell id="I6QSgsFptR3XSi5WMfPF-10" value="&lt;span style=&quot;font-size: 12pt ; font-family: &amp;#34;times new roman&amp;#34; , serif&quot;&gt;payment amount&lt;/span&gt;&lt;span style=&quot;font-size: medium&quot;&gt;&lt;/span&gt;" style="ellipse;whiteSpace=wrap;html=1;" vertex="1" parent="1">
          <mxGeometry x="500" y="970" width="80" height="50" as="geometry" />
        </mxCell>
        <mxCell id="I6QSgsFptR3XSi5WMfPF-11" value="&lt;span style=&quot;font-size: 12pt ; font-family: &amp;#34;times new roman&amp;#34; , serif&quot;&gt;payment number&lt;/span&gt;&lt;span style=&quot;font-size: medium&quot;&gt;&lt;/span&gt;" style="ellipse;whiteSpace=wrap;html=1;" vertex="1" parent="1">
          <mxGeometry x="320" y="970" width="80" height="50" as="geometry" />
        </mxCell>
        <mxCell id="I6QSgsFptR3XSi5WMfPF-12" value="&lt;span style=&quot;font-size: 12pt ; font-family: &amp;#34;times new roman&amp;#34; , serif&quot;&gt;payment date&lt;/span&gt;&lt;span style=&quot;font-size: medium&quot;&gt;&lt;/span&gt;" style="ellipse;whiteSpace=wrap;html=1;" vertex="1" parent="1">
          <mxGeometry x="410" y="990" width="80" height="50" as="geometry" />
        </mxCell>
        <mxCell id="I6QSgsFptR3XSi5WMfPF-13" value="payment" style="shape=ext;margin=3;double=1;whiteSpace=wrap;html=1;align=center;" vertex="1" parent="1">
          <mxGeometry x="390" y="890" width="120" height="50" as="geometry" />
        </mxCell>
      </root>
    </mxGraphModel>
  </diagram>
</mxfile>
